<?xml version="1.0" encoding="UTF-8"?>
<svg width="125cm" height="20cm" version="1.1" viewBox="0 0 4724.4 755.91" xmlns="http://www.w3.org/2000/svg">
<style type="text/css">
    :root {
    --color-background:46, 52, 64;
    --color-on-background:236, 239, 244;
    --color-aurora-0:191, 97, 106;
    --color-aurora-1:208, 135, 112;
    --color-aurora-2:235, 203, 139;
    --color-aurora-3:163, 190, 140;
    --color-aurora-4:180, 142, 173
    }
    @media(prefers-color-scheme:light) {
        :root {
        --color-background:236, 239, 244;
        --color-on-background:76, 86, 106;
        }
    }
    @media(prefers-color-scheme:dark) {
        :root {
        --color-background:46, 52, 64;
        --color-on-background:236, 239, 244;
        }
    }
    .line, .lineb {
        fill:none;
        stroke-miterlimit:10;
    }
    .lineb {
        stroke-width:3;
        stroke:rgb(var(--color-aurora-0),1);
    }
    .line {
        stroke:rgb(var(--color-on-background),1);
    }
</style>
 <g transform="matrix(1.3333 0 0 -1.3333 0 666.67)">
  <g transform="matrix(4.1337 0 0 4.1337 205.95 -808.12)">
   <path d="m173.81 315.13c-5.871-7.0244-10.818-14.979-15.143-23.033-8.869-16.52-15.873-34.172-26.97-49.287-11.095-15.115-27.457-27.815-46.185-28.748-17.411-0.868-33.527 8.337-50.362 12.859-23.453 6.3-49.294 3.196-70.59-8.477" class="line"/>
   <path d="m606.05 179.3c1.8056 7.5552 1.9242 15.61 1.5291 23.426-0.751 14.85-3.544 30.464-13.264 41.716-10.07 11.657-25.679 16.562-40.448 20.94-20.42 6.054-41.455 11.165-61.464 18.47-11.905 4.346-22.634 11.073-34.967 14.281-34.405 8.949-69.871 0.42298-97.366-21.573-29.735-25.644-43.438-66.214-66.697-97.263" class="lineb"/>
   <path d="m670.2 315.12c1.0301-10.778 1.8868-21.583 5.0466-30.994 11.858-35.314 35.606-65.832 39.291-103.79 0.03343-0.34434 0.06553-0.68879 0.0963-1.0334" class="lineb"/>
   <path d="m326.66 315.11c-17.742-18.145-39.64-32.501-61.51-45.737-23.545-14.25-48.345-28.396-64.218-50.881-8.3765-11.864-13.778-25.388-18.542-39.181" class="lineb"/>
   <path d="m70.802 315.12c-10.166-13.075-21.738-25.204-33.646-36.694-19.087-18.417-42.211-36.712-68.701-35.367" class="lineb"/>
   <path d="m50.553 316.45c-19.147-24.027-45.04-42.73-74.126-52.689" class="line"/>
   <path d="m20.47 316.43c-14.846-15.682-33.189-28.186-53.517-35.906" class="line"/>
   <path d="m-11.126 316.43c-9.4472-7.8125-20.023-14.321-31.394-19.135" class="line"/>
   <path d="m85.036 316.44c-11.736-14.002-24.103-27.535-32.504-43.684-5.3797-10.342-8.6937-23.823-1.5144-33.009 7.6465-9.783 22.838-9.04 34.407-4.528 27.474 10.712 46.52 36.034 60.283 62.114 3.3318 6.3132 6.5427 12.861 10.108 19.124" class="line"/>
   <path d="m101.84 316.45c-3.3625-4.5942-7.0081-9.0368-11.237-13.253-6.7469-6.728-14.19-12.803-20.195-20.2-6.0055-7.398-10.577-16.502-10.253-26.025 0.0765-2.247 0.4503-4.556 1.6484-6.458 3.3566-5.332 11.247-5.121 17.206-3.074 16.214 5.572 28.217 19.415 37.16 34.042 6.9673 11.398 12.582 23.578 19.524 34.982" class="line"/>
   <path d="m-32.101 206.18c16.487 6.883 35.244 5.255 52.768 1.776 17.524-3.478 34.913-8.708 52.779-8.684 30.222 0.04 59.943 16.341 76.218 41.808 9.74 15.239 14.878 33.315 26.309 47.329 10.648 13.055 25.571 21.247 41.212 28.052" class="line"/>
   <path d="m-25.512 188.86c42.508-5.708 85.705-6.267 128.35-1.662 10.356 1.118 20.939 2.622 30.111 7.561 12.454 6.706 20.832 18.893 28.725 30.631 6.588 9.798 13.177 19.596 19.766 29.394 7.579 11.272 15.333 22.735 25.983 31.166 13.976 11.063 31.71 15.971 47.594 24.056 3.8347 1.9519 7.5679 4.1001 11.184 6.4298" class="line"/>
   <path d="m297.43 316.43c-20.344-18.634-44.678-29.215-68.548-44.72-31.202-20.267-53.42-50.609-70.988-82.881-1.6618-3.0527-3.2534-6.2304-4.8012-9.4985" class="line"/>
   <path d="m267.68 179.3c9.6778 10.756 17.654 23.062 24.443 35.873 4.38 8.267 21.177 36.182 10.416 43.755-9.345 6.577-34.351-14.648-42.559-19.534-14.135-8.415-28.45-16.972-39.898-28.786-8.6762-8.9545-15.53-19.665-20.035-31.291" class="line"/>
   <path d="m240.03 179.3c3.0456 2.965 6.0911 5.9286 9.1367 8.8923 3.35 3.26 19.891 19.69 6.925 21.556-6.844 0.985-18.922-17.376-23.25-22.156-1.726-1.907-3.511-3.932-4.089-6.438-0.13798-0.59824-0.1792-1.2301-0.12831-1.855" class="line"/>
   <path d="m323.87 294.28c-2.776-2.584-5.398-5.423-7.089-8.817s-2.373-7.426-1.174-11.024c1.2-3.597 4.521-6.579 8.311-6.731 4.049-0.162 7.533 2.675 10.532 5.401 6.47 5.88 13.063 12.662 14.358 21.309 3.16 21.111-18.073 6.254-24.938-0.138" class="line"/>
   <path d="m582.24 179.3c0.70277 5.1591 0.69899 10.48 0.43583 15.68-0.66 13.045-3.113 26.763-11.652 36.648-8.847 10.24-22.56 14.55-35.535 18.395-17.938 5.319-36.418 9.81-53.996 16.227-10.46 3.817-19.885 9.728-30.72 12.546-30.224 7.861-61.381 0.37198-85.537-18.952-24.585-21.203-36.694-54.022-55.07-80.55" class="line"/>
   <path d="m551.09 179.3c0.02206 1.9422-0.03224 3.8854-0.12957 5.8085-0.543 10.749-2.564 22.05-9.601 30.195-7.288 8.436-18.586 11.987-29.275 15.156-14.78 4.382-30.005 8.082-44.487 13.368-8.617 3.146-16.383 8.015-25.31 10.337-24.901 6.477-50.869 0.67098-70.473-15.614-18.435-15.316-28.258-38.74-40.917-59.258" class="line"/>
   <path d="m518.94 179.3c-0.72985 7.1594-2.5932 14.298-7.245 19.681-5.73 6.634-14.613 9.425-23.017 11.917-11.621 3.445-23.592 6.354-34.978 10.511-6.776 2.473-12.882 6.302-19.9 8.127-19.579 5.093-39.996 0.52699-55.409-12.276-11.961-9.9367-19.311-24.214-27.107-37.967" class="line"/>
   <path d="m484.32 179.31c-0.63351 1.1902-1.3864 2.3144-2.2808 3.3496-4.173 4.83-10.64 6.863-16.76 8.677-8.462 2.509-17.177 4.627-25.468 7.653-4.934 1.801-9.38 4.589-14.491 5.918-14.255 3.708-29.122 0.38399-40.344-8.939-5.5198-4.5851-9.6909-10.44-13.451-16.663" class="line"/>
   <path d="m649.94 316.46c1.134-4.5608 2.1136-9.184 3.2332-13.648 10.639-42.422 39.173-81.218 44.041-123.5" class="line"/>
   <path d="m623.74 179.28c0.96278 2.4679 1.8094 5.0067 2.5308 7.6177 6.009 21.748 4.193 50.07-8.974 69.103-7.071 10.22-17.86 17.409-29.345 22.156-22.282 9.209-47.626 9.469-67.716 24.1-5.3914 3.9264-9.24 8.7425-11.908 14.187" class="line"/>
   <path d="m624.32 316.47c8.5657-10.508 15.267-22.929 20.82-34.247 13.155-26.817 26.415-52.177 29.637-82.507 0.73234-6.8905 1.0216-13.698 0.88575-20.413" class="line"/>
   <path d="m640.32 179.3c8.4772 24.852 7.6846 60.244-4.2026 83.115-17.048 32.798-62.699 29.891-88.434 52.375-0.61434 0.53658-1.2211 1.0887-1.8134 1.6576" class="line"/>
   <path d="m687.26 316.44c0.30234-1.656 0.60293-3.3094 0.90754-4.9567 8.35-45.163 42.42-123.68 101.53-115.35" class="line"/>
   <path d="m699.39 316.46c13.587-39.394 44.501-90.89 91.433-86" class="line"/>
   <path d="m717.63 316.45c16.324-27.538 41.422-53.536 74.304-51.665" class="line"/>
   <path d="m748.83 316.44c12.691-10.234 27.513-17.231 44.223-17.331" class="line"/>
   <path d="m454.31 316.45c0.34281-2.3211 1.4992-4.5331 3.7788-6.5071 9-7.792 30.284-13.508 33.787 2.702 0.27263 1.2619 0.481 2.5308 0.63672 3.805" class="line"/>
   <path d="m732.53 179.31c7.6432 12.224 22.402 13.529 37.236 4.4972 2.3787-1.4485 4.7262-2.9488 7.0402-4.4992" class="line"/>
  </g>
 </g>
</svg>
